<svg width="215" height="84" viewBox="0 0 215 84" xmlns="http://www.w3.org/2000/svg"><g fill="none" fill-rule="evenodd"><path d="M186.36 82.4h18.458c4.67 0 8.458-3.79 8.458-8.462V55.712M186.36 1.554h18.458c4.67 0 8.458 3.788 8.458 8.46V28.24M28.64 82.4H10.18c-4.67 0-8.458-3.79-8.458-8.462V55.712M28.64 1.554H10.18c-4.67 0-8.458 3.788-8.458 8.46V28.24" stroke-linecap="round" stroke-width="2" stroke="#FFF" stroke-linejoin="round"/><path d="M72.675 22.418l-9.193-4.055v13.332c-2.547-1.404-5.475-2.203-8.593-2.203-9.797 0-17.737 7.885-17.737 17.614 0 9.73 7.94 17.616 17.736 17.616 9.433 0 17.15-7.317 17.703-16.555.006-.116.037-.458.045-.648.01-.142.037-.885.037-.656V22.418zm-17.91 33.316c-4.762 0-8.627-3.863-8.627-8.628 0-4.764 3.865-8.628 8.627-8.628 4.763 0 8.627 3.864 8.627 8.628 0 4.765-3.864 8.628-8.627 8.628zM84.997 38.48v6.56c0 4.337 2.136 8.047 5.194 9.733.165.09.327.167.496.246.347.152.696.284 1.043.39.22.065.447.122.68.168.388.08.768.14 1.128.15v.002l-.05-.004v.002l.05.002v8.994c-9.76 0-17.678-7.943-17.734-17.625h-.002V22.414l9.195-4.053v10.86h8.592v9.257h-8.593zM109.54 48.7V35.256h4.1v13.61c0 1.31-.11 2.516-.326 3.607 2.62 2.736 5.08 5.58 7.377 8.528l-3.77 3.116c-.766-1.204-2.46-3.444-5.082-6.722-1.423 3.17-3.772 5.846-7.05 8.035-.765-1.095-1.75-2.408-2.95-3.934 5.134-3.392 7.702-7.653 7.702-12.794zm-1.803 4.92h-4.423V29.19h16.555v23.944h-4.425v-19.52h-7.707v20.008zm28.816-19.985v-5.27l-5.08-1.937-.013 7.203-10.213.004v4.826h9.115c-.258.843-1.825 3.618-2.507 4.774-2.3 3.892-5.356 7.665-8.61 10.703.79.887 2.956 3.22 3.404 3.68.662-.54 1.794-1.6 2.48-2.42 1.036-1.24 2-2.525 2.912-3.84.223-.322.423-.65.636-.972 1.003-1.5 1.954-3.026 2.792-4.626l.05-.065s.044 5.69 0 6.67c-.04.976.003 2.952-.888 4.97-.438.866-.995 1.518-1.572 1.984-.837.68-1.767.892-2.357.967-.603.076-1.742 0-1.742 0v5.35h1.743c5.462 0 9.89-4.25 9.89-11.15V38.464h2.473v-4.826h-2.513zm3.78 17.533l2.168 5.43c3.377-.333 6.364-.86 11.025-1.502l.375-4.9c-2.67.605-4.656.803-7.172 1.012 1.374-1.525 3.346-4.063 5.138-6.842.427.824 1.852 3.904 2.247 4.6 4.035-1.577 8.405-4.132 11.524-6.442.765.528 2.577 1.782 4.456 2.865 1.954 1.126 4.53 2.362 5.344 2.75l2.41-4.506c-1.758-.74-6.29-2.8-8.556-4.272l.596-.526c1.605-1.635 3.108-3.323 4.5-5.065v-4.005h-19.68v4.338h13.337c-3.267 3.315-7.456 6.206-12.384 8.575-.896.43-2.163.97-3.598 1.388 1.167-1.838 2.248-3.773 3.004-5.602l-3.868-1.382c-.276.588-.467.997-.923 1.697l-3.432.02c.605-.948 3.837-6.423 4.548-7.96l-4.482-1.655c-1.075 2.198-4.054 7.66-6.27 10.166l1.617 4.658c.393-.12 4.53-.243 4.86-.243-1.98 2.648-4.474 5.44-6.782 7.405zm27.676 2.135h6.776v-4.61h-19.078v4.61h6.81v6.277h-7.81v-1.745s-.948.093-1.265.128c-5.613.66-9.632 1.103-12.055 1.322l.826 5.12c3.72-.706 7.305-1.207 11.422-1.542v1.32h23.224v-4.604h-8.852v-6.275z" fill="#FFF"/></g></svg>