<svg width="76" height="84" viewBox="0 0 76 84" xmlns="http://www.w3.org/2000/svg">
  <g>
    <path fill="currentColor" d="M47.3688419,16.8594095 L47.3688419,16.8594095 C53.5111675,18.8865399 58.8316326,22.8545399 62.5083768,27.9870617 C66.185121,32.9470617 68.3046558,39.1147139 68.3046558,45.6705399 C68.3046558,54.210366 64.9307024,61.7581921 59.3939582,67.2357573 L59.3507024,67.2357573 C53.857214,72.7133225 46.2009349,76.0774965 37.809307,76.0774965 C29.3744233,76.0774965 21.7614,72.7133225 16.2679117,67.2357573 C10.7311675,61.7581921 7.31395817,54.210366 7.31395817,45.6705399 C7.31395817,39.1147139 9.43349305,32.9470617 13.0669814,27.9870617 C16.7869814,22.8545399 22.1074465,18.8865399 28.2497721,16.8594095 C30.1097721,16.2555834 31.1479117,14.2715834 30.5423303,12.4169747 C29.8934931,10.562366 27.9037256,9.57036603 26.0004698,10.0879312 C18.4739582,12.6757573 11.8558186,17.4632356 7.31395817,23.8034095 C2.7720977,30.0141921 0.22000468,37.5620182 0.22000468,45.6705399 C0.22000468,56.1512356 4.41581863,65.4674095 11.2069814,72.3251486 L11.2934931,72.3251486 C18.0414,79.0534965 27.5144233,83.2371486 37.809307,83.2371486 C48.1474465,83.2371486 57.577214,79.0534965 64.3683768,72.3251486 L64.4116326,72.3251486 C71.2027954,65.4674095 75.4418651,56.1512356 75.4418651,45.6705399 C75.4418651,37.5620182 72.8032605,30.0141921 68.3046558,23.8034095 C63.7627954,17.4632356 57.1446558,12.6757573 49.5316326,10.0879312 C47.7148884,9.57036603 45.6818651,10.562366 45.0762837,12.4169747 C44.4707024,14.2715834 45.5088419,16.2555834 47.3688419,16.8594095 L47.3688419,16.8594095 Z M34.2190744,3.57523559 L34.2190744,46.6194095 C34.2190744,48.5602791 35.7762837,50.242366 37.809307,50.242366 C39.8423303,50.242366 41.3562837,48.5602791 41.3562837,46.6194095 L41.3562837,3.57523559 C41.3562837,1.63436603 39.8423303,-0.00459049545 37.809307,-0.00459049545 C35.7762837,-0.00459049545 34.2190744,1.63436603 34.2190744,3.57523559 L34.2190744,3.57523559 Z"></path>
  </g>
</svg>