<svg width="725px" height="147px" viewBox="732 877 725 147" version="1.1" xmlns="http://www.w3.org/2000/svg" xmlns:xlink="http://www.w3.org/1999/xlink">
    <!-- Generator: Sketch 39.1 (31720) - http://www.bohemiancoding.com/sketch -->
    <desc>Created with Sketch.</desc>
    <defs>
        <path d="M281.226637,0.0957323634 L285.609566,0.0957323634 L285.609566,8.86159127 L281.226637,8.86159127 L281.226637,0.0957323634 Z M291.453472,0.0957323634 L295.836401,0.0957323634 L295.836401,8.86159127 L291.453472,8.86159127 L291.453472,0.0957323634 Z M270.999801,0.0957323634 L275.382731,0.0957323634 L275.382731,8.86159127 L270.999801,8.86159127 L270.999801,0.0957323634 Z M311.907143,0.0957323634 L316.290072,0.0957323634 L316.290072,8.86159127 L311.907143,8.86159127 L311.907143,0.0957323634 Z M332.360814,0.0957323634 L336.743743,0.0957323634 L336.743743,8.86159127 L332.360814,8.86159127 L332.360814,0.0957323634 Z M352.814484,0.0957323634 L357.197414,0.0957323634 L357.197414,8.86159127 L352.814484,8.86159127 L352.814484,0.0957323634 Z M373.268155,0.0957323634 L377.651085,0.0957323634 L377.651085,8.86159127 L373.268155,8.86159127 L373.268155,0.0957323634 Z M393.721826,0.0957323634 L398.104755,0.0957323634 L398.104755,8.86159127 L393.721826,8.86159127 L393.721826,0.0957323634 Z M301.680307,0.0957323634 L306.063237,0.0957323634 L306.063237,8.86159127 L301.680307,8.86159127 L301.680307,0.0957323634 Z M322.133978,0.0957323634 L326.516908,0.0957323634 L326.516908,8.86159127 L322.133978,8.86159127 L322.133978,0.0957323634 Z M342.587649,0.0957323634 L346.970578,0.0957323634 L346.970578,8.86159127 L342.587649,8.86159127 L342.587649,0.0957323634 Z M363.04132,0.0957323634 L367.424249,0.0957323634 L367.424249,8.86159127 L363.04132,8.86159127 L363.04132,0.0957323634 Z M383.494991,0.0957323634 L387.87792,0.0957323634 L387.87792,8.86159127 L383.494991,8.86159127 L383.494991,0.0957323634 Z M403.948661,0.0957323634 L408.331591,0.0957323634 L408.331591,8.86159127 L403.948661,8.86159127 L403.948661,0.0957323634 Z M424.402332,0.0957323634 L428.785262,0.0957323634 L428.785262,8.86159127 L424.402332,8.86159127 L424.402332,0.0957323634 Z M444.856003,0.0957323634 L449.238932,0.0957323634 L449.238932,8.86159127 L444.856003,8.86159127 L444.856003,0.0957323634 Z M414.175497,0.0957323634 L418.558426,0.0957323634 L418.558426,8.86159127 L414.175497,8.86159127 L414.175497,0.0957323634 Z M434.629168,0.0957323634 L439.012097,0.0957323634 L439.012097,8.86159127 L434.629168,8.86159127 L434.629168,0.0957323634 Z M455.082838,0.0957323634 L459.465768,0.0957323634 L459.465768,8.86159127 L455.082838,8.86159127 L455.082838,0.0957323634 Z" id="path-1"></path>
        <mask id="mask-2" maskContentUnits="userSpaceOnUse" maskUnits="objectBoundingBox" x="0" y="0" width="188.465967" height="8.76585891" fill="white">
            <use xlink:href="#path-1"></use>
        </mask>
        <path d="M241.484937,135.966545 L245.867867,135.966545 L245.867867,144.732404 L241.484937,144.732404 L241.484937,135.966545 Z M251.711773,135.966545 L256.094702,135.966545 L256.094702,144.732404 L251.711773,144.732404 L251.711773,135.966545 Z M231.258102,135.966545 L235.641032,135.966545 L235.641032,144.732404 L231.258102,144.732404 L231.258102,135.966545 Z M272.165444,135.966545 L276.548373,135.966545 L276.548373,144.732404 L272.165444,144.732404 L272.165444,135.966545 Z M261.938608,135.966545 L266.321538,135.966545 L266.321538,144.732404 L261.938608,144.732404 L261.938608,135.966545 Z M282.392279,135.966545 L286.775208,135.966545 L286.775208,144.732404 L282.392279,144.732404 L282.392279,135.966545 Z" id="path-3"></path>
        <mask id="mask-4" maskContentUnits="userSpaceOnUse" maskUnits="objectBoundingBox" x="0" y="0" width="55.5171064" height="8.76585891" fill="white">
            <use xlink:href="#path-3"></use>
        </mask>
    </defs>
    <g id="Group-8" opacity="0.799999952" stroke="none" stroke-width="1" fill="none" fill-rule="evenodd" transform="translate(1094.000000, 950.500000) scale(-1, 1) translate(-1094.000000, -950.500000) translate(732.500000, 877.500000)">
        <g id="Group-9" transform="translate(0.121414, 0.266219)" stroke="#137CFF">
            <polyline id="Path-2" points="0 15.4359855 82.9449387 15.4359855 140.945786 75.7012654 169.51899 75.7012654 227.508643 135.966545"></polyline>
            <polyline id="Path-3" points="289.965388 135.966545 311.339191 114.592742 300.90868 114.592742 282.295261 131.583616 253.785156 131.583616 136.562857 15.4359855"></polyline>
            <polyline id="Path-4" points="266.955008 4.47866182 247.231825 24.2018444 247.231825 61.4728549 287.773923 104.190307 346.984039 104.190307 383.102638 139.253743 501.446806 139.253743 501.446806 124.967529 425.836201 49.4036887"></polyline>
            <path d="M441.176454,49.4036887 L531.576034,139.803269" id="Path-5"></path>
            <polyline id="Path-6" points="352.422132 80.0841949 392.979034 80.0841949 423.671968 49.3912607 518.979608 49.3912607 541.439589 26.9312799 670.279284 26.9312799 721.469801 78.1217961"></polyline>
            <polyline id="Path-7" points="535.409437 34.0634356 669.129196 34.0634356 719.525036 84.4592761"></polyline>
            <path d="M563.898478,34.0634356 L606.646086,76.8110433" id="Path-8"></path>
            <path d="M606.646086,34.0634356 L649.393694,76.8110433" id="Path-8"></path>
            <path d="M613.829339,34.0634356 L656.576947,76.8110433" id="Path-8"></path>
            <path d="M621.286526,34.0634356 L664.034134,76.8110433" id="Path-8"></path>
            <polygon id="Path-9" points="340.369076 81.1895577 340.369076 97.6481123 360.092285 97.6481123 385.301147 122.856974 479.533009 122.856974 398.418617 41.7425813 384.155522 41.7425813 345.814675 81.1895577"></polygon>
            <use id="Combined-Shape" mask="url(#mask-2)" stroke-width="2" fill="#0C74F7" xlink:href="#path-1"></use>
            <use id="Combined-Shape" mask="url(#mask-4)" stroke-width="2" fill="#1F45C3" xlink:href="#path-3"></use>
        </g>
    </g>
</svg>