<?xml version="1.0" encoding="UTF-8" standalone="no"?>
<svg width="87px" height="113px" viewBox="0 0 87 113" version="1.1" xmlns="http://www.w3.org/2000/svg" xmlns:xlink="http://www.w3.org/1999/xlink" xmlns:sketch="http://www.bohemiancoding.com/sketch/ns">
    <!-- Generator: Sketch 3.3.1 (12005) - http://www.bohemiancoding.com/sketch -->
    <title>手指</title>
    <desc>Created with Sketch.</desc>
    <defs></defs>
    <g id="Page-1" stroke="none" stroke-width="1" fill="none" fill-rule="evenodd" sketch:type="MSPage">
        <path d="M30.4391441,8.77122947 C26.3603446,8.77122947 23.0505504,12.0789411 23.0505504,16.1598232 C23.0505504,19.9267512 25.8813434,22.9996481 29.5238353,23.4557406 C25.8813434,23.911833 23.0505504,26.9857712 23.0505504,30.7526993 C23.0505504,34.6758233 26.1192821,37.8533716 29.982531,38.0949548 C26.1192821,38.3349761 23.0505504,41.5135656 23.0505504,45.4372103 C23.0505504,48.9667204 25.530423,51.9078919 28.8396966,52.6414927 L-10.7513156,52.6414927 C-14.8311564,52.6414927 -18.14043,55.948163 -18.14043,60.0290451 C-18.14043,64.1109685 -14.8311564,67.4176388 -10.7513156,67.4176388 L57.1195116,67.4176388 L40.5653339,83.969734 C37.6814342,86.8562369 37.6814342,91.5353499 40.5653339,94.4197702 C43.4502749,97.3041906 48.1293878,97.3041906 51.0153701,94.4197702 C51.0153701,94.4197702 42.9442115,103.395631 63.7469099,81.6877097 C84.5496084,59.9797888 111.235186,67.4186792 104.991436,38.0949544 C98.7476852,8.77122948 63.7469099,8.77122947 63.7469099,8.77122947 L30.4391441,8.77122947 Z" id="Imported-Layers-Copy-2" fill="#FFFFFF" sketch:type="MSShapeGroup" transform="translate(43.708422, 52.677157) rotate(-227.000000) translate(-43.708422, -52.677157) "></path>
    </g>
</svg>