<?xml version="1.0" encoding="UTF-8" standalone="no"?>
<svg width="248px" height="248px" viewBox="0 0 248 248" version="1.1" xmlns="http://www.w3.org/2000/svg" xmlns:xlink="http://www.w3.org/1999/xlink" xmlns:sketch="http://www.bohemiancoding.com/sketch/ns">
    <!-- Generator: Sketch 3.3.1 (12005) - http://www.bohemiancoding.com/sketch -->
    <title>指纹</title>
    <desc>Created with Sketch.</desc>
    <defs></defs>
    <g id="Page-1" stroke="none" stroke-width="1" fill="none" fill-rule="evenodd" sketch:type="MSPage">
        <g id="输入指纹,获得你DT时代的ID-+-Imported-Layers-+-Imported-Layers-Copy" sketch:type="MSLayerGroup" transform="translate(0.000000, 1.000000)">
            <g id="Imported-Layers-+-Imported-Layers" transform="translate(0.887417, 0.281525)" sketch:type="MSShapeGroup">
                <path d="M181.074775,245.174393 L225.468726,245.174393 C236.703857,245.174393 245.813423,236.050332 245.813423,224.794679 L245.813423,180.890756 M181.074775,0.431085044 L225.468726,0.431085044 C236.703857,0.431085044 245.813423,9.55514589 245.813423,20.8081543 L245.813423,64.7147219 M65.1503909,245.174393 L20.7564395,245.174393 C9.52130818,245.174393 0.411742224,236.050332 0.411742224,224.794679 L0.411742224,180.890756 M65.1503909,0.431085044 L20.7564395,0.431085044 C9.52130818,0.431085044 0.411742224,9.55514589 0.411742224,20.8081543 L0.411742224,64.7147219" id="Imported-Layers" stroke="#FF9B00" stroke-width="2" stroke-linecap="round" stroke-linejoin="round"></path>
                <g id="Imported-Layers" transform="translate(68.443709, 50.811537)" fill="#FF9B00">
                    <path d="M4.92150032,67.0781477 C7.07430391,62.3460126 9.94617214,58.2245974 13.3687065,54.6928103 C18.5012537,49.396861 24.8784444,45.4284406 31.9100999,42.7831418 C38.9401874,40.137843 46.6212903,38.8197583 54.3249718,38.8200731 C64.8738662,38.8188139 75.45851,41.293174 84.4682988,46.1521752 C88.9739772,48.5815184 93.0867258,51.6045821 96.6177628,55.2094038 C100.1488,58.8145403 103.098752,63.0004903 105.285737,67.7707167 C105.611558,68.4815444 106.449474,68.7925708 107.157563,68.4654893 C107.865652,68.1384079 108.17548,67.2969365 107.849659,66.5864237 C105.521871,61.5076893 102.376238,57.0469153 98.6300775,53.22299 C93.009896,47.4856854 86.0444082,43.1785358 78.4344905,40.3046892 C70.8233185,37.4311574 62.5648942,35.9871511 54.3249718,35.9868363 C43.6277487,35.9877807 32.955613,38.4196423 23.7808752,43.3746587 C14.6095869,48.3265271 6.93381505,55.8289382 2.35412915,65.9010952 C2.03050303,66.6128673 2.34283987,67.4530794 3.05155598,67.778272 C3.76058569,68.1031498 4.5978742,67.789605 4.92150032,67.0781477" id="Fill-38"></path>
                    <path d="M7.56821006,53.8595238 C12.7534406,46.4524983 19.7926223,41.1401793 27.9017771,37.6590756 C36.0084233,34.1801756 45.1831611,32.5494904 54.5491895,32.55012 L54.5626739,32.55012 C55.341948,32.5513792 55.9747751,31.9183082 55.976343,31.13602 C55.9775974,30.3537318 55.3469655,29.7181423 54.5676914,29.7168831 L54.5491895,29.7168831 C44.8589078,29.7175127 35.3150731,31.3985666 26.7926051,35.0537569 C18.2729593,38.7070584 10.7721714,44.3502366 5.25892445,52.2307275 C4.81080262,52.871039 4.9647759,53.7546941 5.60230681,54.2042343 C6.24015132,54.6540894 7.12040182,54.4998354 7.56821006,53.8595238" id="Fill-39"></path>
                    <path d="M103.871441,52.2307275 C98.3581939,44.3502366 90.857406,38.7070584 82.3374466,35.0537569 C73.8149785,31.3985666 64.2711439,29.7175127 54.5811758,29.7168831 L54.5626739,29.7168831 C53.7833998,29.7181423 53.1524543,30.3537318 53.1540222,31.13602 C53.1552766,31.9183082 53.7884172,32.5513792 54.5676914,32.55012 L54.5811758,32.55012 C63.9472042,32.5494904 73.121942,34.1801756 81.2285881,37.6590756 C89.337743,41.1401793 96.3766111,46.4524983 101.562155,53.8595238 C102.009963,54.4998354 102.890214,54.6540894 103.528058,54.2042343 C104.165589,53.7546941 104.319563,52.871039 103.871441,52.2307275" id="Fill-40"></path>
                    <path d="M9.97345457,44.4172899 C15.2659333,38.122782 22.0536148,33.5861402 29.7071217,30.612186 C37.3584334,27.6394909 45.8721209,26.2398719 54.5495031,26.2405015 L54.5614195,26.2405015 C55.3406937,26.2427052 55.9741479,25.6099489 55.976343,24.8276608 C55.9785382,24.0453726 55.3485335,23.4094683 54.5689457,23.4072647 L54.5495031,23.4072647 C45.571387,23.4075795 36.7196481,24.8512711 28.6885775,27.9700352 C20.6593884,31.0875402 13.4477315,35.890821 7.81657429,42.5898521 C7.31388759,43.1879799 7.38914948,44.0817087 7.98465917,44.5863397 C8.58048245,45.0909706 9.47076787,45.0151028 9.97345457,44.4172899" id="Fill-41"></path>
                    <path d="M101.313791,42.5898521 C95.6826338,35.890821 88.4706633,31.0875402 80.4417878,27.9700352 C72.4104036,24.8512711 63.5589783,23.4075795 54.5808622,23.4072647 L54.561106,23.4072647 C53.7818318,23.4094683 53.1518271,24.0453726 53.1540222,24.8276608 C53.1562174,25.6099489 53.7896716,26.2427052 54.5689457,26.2405015 L54.5808622,26.2405015 C63.2582443,26.2398719 71.7719319,27.6394909 79.4232436,30.612186 C87.0767505,33.5861402 93.864432,38.122782 99.1569107,44.4172899 C99.6592838,45.0151028 100.549883,45.0909706 101.145393,44.5863397 C101.740902,44.0817087 101.816478,43.1879799 101.313791,42.5898521" id="Fill-42"></path>
                    <path d="M12.7245902,35.4368735 C18.0158145,30.1950705 24.4804971,26.4001072 31.6259863,23.9109512 C38.7699074,21.4224249 46.5911856,20.2453724 54.5495031,20.2456872 L54.5626739,20.2456872 C55.341948,20.2469464 55.9747751,19.6138754 55.976343,18.8315872 C55.9775974,18.049299 55.3472791,17.4137096 54.5676914,17.4124503 L54.5495031,17.4124503 C46.3149117,17.4127652 38.1875686,18.6272793 30.7008922,21.234172 C23.2160974,23.8407499 16.3688335,27.8456876 10.7420666,33.4205533 C10.1873238,33.9698864 10.1813655,34.8670781 10.7288958,35.4236517 C11.276426,35.9805402 12.1698473,35.9865214 12.7245902,35.4368735" id="Fill-43"></path>
                    <path d="M98.3882987,33.4205533 C92.7612182,27.8456876 85.9142679,23.8407499 78.4294731,21.234172 C70.9427967,18.6272793 62.81514,17.4127652 54.5808622,17.4124503 L54.5626739,17.4124503 C53.7830862,17.4137096 53.1524543,18.049299 53.1540222,18.8315872 C53.1555902,19.6138754 53.7884172,20.2469464 54.5676914,20.2456872 L54.5808622,20.2456872 C62.5391797,20.2453724 70.3604579,21.4224249 77.504379,23.9109512 C84.6495546,26.4001072 91.1142372,30.1950705 96.4057751,35.4368735 C96.9605179,35.9865214 97.8539393,35.9805402 98.4014695,35.4239665 C98.9486862,34.8670781 98.9430415,33.9698864 98.3882987,33.4205533" id="Fill-44"></path>
                    <path d="M18.1588121,25.1572606 C23.1903829,21.5231622 28.9410184,18.8747154 35.1106117,17.1347931 C41.2795778,15.3951857 47.8659338,14.5653621 54.5485623,14.5656769 L54.5626739,14.5656769 C55.3422616,14.5669362 55.9750887,13.9338651 55.976343,13.1512621 C55.9775974,12.368974 55.3469655,11.7336993 54.5676914,11.7324401 L54.5485623,11.7324401 C47.6338763,11.7324401 40.7950794,12.5893368 34.3473307,14.4073305 C27.9005228,16.2253241 21.8428815,19.0059887 16.5105768,22.8573019 C15.8780633,23.3143975 15.7341249,24.1996266 16.1891458,24.8345865 C16.6444802,25.4695463 17.5262987,25.6140414 18.1591257,25.1572606 L18.1588121,25.1572606" id="Fill-45"></path>
                    <path d="M92.6197885,22.8573019 C87.2874837,19.0059887 81.2298425,16.2253241 74.7830346,14.4073305 C68.3352859,12.5893368 61.496489,11.7324401 54.581803,11.7324401 L54.5626739,11.7324401 C53.7833998,11.7336993 53.1527679,12.368974 53.1540222,13.1515769 C53.1552766,13.9338651 53.7881036,14.5669362 54.5676914,14.5656769 L54.581803,14.5656769 C61.2644315,14.5653621 67.8507875,15.3951857 74.0197536,17.1347931 C80.1893469,18.8747154 85.9399823,21.5231622 90.9712396,25.1572606 C91.6040666,25.6140414 92.4858851,25.4698611 92.9409059,24.8345865 C93.3962403,24.1996266 93.252302,23.3143975 92.6197885,22.8573019" id="Fill-46"></path>
                    <path d="M5.25892445,103.473908 C10.7721714,111.354714 18.2729593,116.997892 26.7926051,120.651193 C35.3150731,124.306069 44.8589078,125.987438 54.5491895,125.988067 L54.5498167,125.988067 C55.3294044,125.996567 55.9678761,125.369162 55.976343,124.586874 C55.9844964,123.804586 55.3598227,123.16333 54.5805486,123.155145 L54.5491895,123.15483 C45.1831611,123.15546 36.0084233,121.52446 27.9017771,118.045875 C19.7926223,114.564771 12.7534406,109.252452 7.56821006,101.845427 C7.12040182,101.205115 6.24015132,101.050861 5.60230681,101.500716 C4.9647759,101.950256 4.81080262,102.833911 5.25892445,103.474223 L5.25892445,103.473908" id="Fill-47"></path>
                    <path d="M100.344481,102.408926 C95.1476472,109.829488 88.4167257,114.989127 80.6214756,118.32668 C72.828107,121.661085 63.9622566,123.15546 54.5824302,123.15483 L54.551071,123.15483 C53.7717969,123.162701 53.146496,123.803327 53.1540222,124.585615 C53.161862,125.367903 53.7997065,125.995937 54.5792942,125.988067 L54.573336,125.38144 L54.5727088,125.988067 L54.5792942,125.988067 L54.573336,125.38144 L54.5727088,125.988067 L54.5824302,125.988067 C64.2576595,125.987752 73.5010737,124.451194 81.7278253,120.933258 C89.9523818,117.41847 97.1521222,111.903732 102.653766,104.037722 C103.101888,103.397411 102.947915,102.513756 102.310384,102.064215 C101.672539,101.61436 100.792602,101.768614 100.344481,102.408926" id="Fill-48"></path>
                    <path d="M7.81657429,113.115098 C13.4474179,119.813815 20.6590748,124.617095 28.6879503,127.734915 C36.7187074,130.853679 45.5701326,132.297371 54.5482487,132.297686 L54.5576565,132.297686 L54.5573429,131.670281 L54.551071,132.297686 L54.5576565,132.297686 L54.5573429,131.670281 L54.551071,132.297686 C55.3303452,132.305556 55.9685033,131.677836 55.976343,130.895233 C55.9841828,130.112945 55.3585684,129.472319 54.5792942,129.464764 L54.5482487,129.464449 C45.8708666,129.465078 37.3574926,128.065145 29.7064945,125.09245 C22.0533012,122.118495 15.2656197,117.581854 9.97345457,111.287661 C9.47076787,110.689848 8.58048245,110.614295 7.98465917,111.118611 C7.38914948,111.623242 7.31388759,112.516971 7.81657429,113.115098" id="Fill-49"></path>
                    <path d="M99.1569107,111.287661 C93.864432,117.581854 87.077064,122.118495 79.4238708,125.09245 C71.7728726,128.065145 63.2591851,129.465078 54.5821166,129.464449 L54.5507574,129.464449 C53.7714833,129.472634 53.1461825,130.11326 53.1540222,130.895548 C53.161862,131.677836 53.8000201,132.305556 54.5796078,132.297686 L54.5730224,131.659578 L54.5723952,132.297686 L54.5796078,132.297686 L54.5730224,131.659578 L54.5723952,132.297686 L54.5821166,132.297686 C63.5599191,132.297371 72.4113443,130.853679 80.442415,127.734915 C88.4709769,124.617095 95.6826338,119.813815 101.313791,113.115098 C101.816478,112.516971 101.740902,111.623242 101.145393,111.118611 C100.549883,110.614295 99.6592838,110.689848 99.1569107,111.287661" id="Fill-50"></path>
                    <path d="M10.7420666,122.284397 C16.3688335,127.859263 23.2160974,131.8642 30.7008922,134.470778 C38.1875686,137.077671 46.3149117,138.292185 54.5495031,138.2925 L54.5498167,138.2925 C55.3290908,138.301 55.9675625,137.67391 55.976343,136.891622 C55.98481,136.109334 55.3601363,135.468078 54.5808622,135.459263 L54.5495031,135.459263 C46.5911856,135.459578 38.7699074,134.282525 31.6259863,131.793999 C24.4804971,129.304843 18.0158145,125.50988 12.7245902,120.267762 C12.1698473,119.718429 11.276426,119.724095 10.7288958,120.281299 C10.1813655,120.837872 10.1873238,121.735064 10.7420666,122.284397" id="Fill-51"></path>
                    <path d="M96.4057751,120.267762 C91.1142372,125.50988 84.6495546,129.304843 77.504379,131.793999 C70.3604579,134.282525 62.5391797,135.459578 54.5808622,135.459263 L54.5495031,135.459263 C53.7702289,135.468078 53.1455553,136.109334 53.1540222,136.891622 C53.1628028,137.67391 53.8015881,138.301 54.5808622,138.2925 L54.5808622,138.287148 L54.5808622,138.2925 L54.5808622,138.287148 L54.5808622,138.2925 C62.81514,138.292185 70.9427967,137.077671 78.4294731,134.470778 C85.9142679,131.8642 92.7612182,127.859263 98.3882987,122.284397 C98.9430415,121.735064 98.9486862,120.837872 98.4014695,120.281299 C97.8539393,119.72441 96.9605179,119.718429 96.4057751,120.267762" id="Fill-52"></path>
                    <path d="M16.5105768,132.847648 C21.8428815,136.698962 27.9005228,139.479941 34.3473307,141.297935 C40.7950794,143.115614 47.6338763,143.972195 54.5485623,143.97251 L54.55797,143.97251 L54.5573429,143.311736 L54.5507574,143.97251 L54.55797,143.97251 L54.5573429,143.311736 L54.5507574,143.97251 C55.3300316,143.98038 55.9681897,143.352976 55.976343,142.570373 C55.9841828,141.788085 55.358882,141.147458 54.5796078,141.139273 L54.5485623,141.139273 C47.8659338,141.139588 41.2795778,140.309765 35.1106117,138.570157 C28.9410184,136.830235 23.1903829,134.182103 18.1591257,130.54769 C17.5262987,130.090909 16.6444802,130.235089 16.1891458,130.870364 C15.7341249,131.505324 15.8780633,132.390553 16.5105768,132.847648" id="Fill-53"></path>
                    <path d="M90.9712396,130.54769 C85.9399823,134.182103 80.1893469,136.830235 74.0197536,138.570157 C67.8507875,140.309765 61.2644315,141.139588 54.581803,141.139273 L54.5504439,141.139273 C53.7711697,141.147458 53.1458689,141.788399 53.1540222,142.570688 C53.1621756,143.352976 53.8003337,143.980695 54.5799214,143.97251 L54.5730224,143.299144 L54.5723952,143.97251 L54.5799214,143.97251 L54.5730224,143.299144 L54.5723952,143.97251 L54.581803,143.97251 C61.496489,143.972195 68.3352859,143.115614 74.782721,141.297935 C81.2298425,139.479941 87.2874837,136.698962 92.6197885,132.847648 C93.252302,132.390553 93.3962403,131.505324 92.9409059,130.870364 C92.4858851,130.235089 91.6040666,130.090909 90.9712396,130.54769" id="Fill-54"></path>
                    <path d="M24.7301157,15.7934129 C33.5765235,11.2929736 43.9385176,9.19952636 54.5488759,9.20047078 L54.5626739,9.20047078 C55.341948,9.20172999 55.9750887,8.56865896 55.976343,7.78637079 C55.9775974,7.00376781 55.3469655,6.36849315 54.5676914,6.36723394 L54.5488759,6.36723394 C43.5725567,6.36817835 32.7818834,8.52458639 23.4547403,13.2658508 C22.7595086,13.6193758 22.4813532,14.4718653 22.8335162,15.169786 C23.1856791,15.8677067 24.034884,16.1469379 24.7301157,15.7934129" id="Fill-55"></path>
                    <path d="M85.6753114,13.2658508 C76.3484819,8.52458639 65.5578086,6.36817835 54.5814894,6.36723394 L54.5626739,6.36723394 C53.7833998,6.36849315 53.1527679,7.00408262 53.1540222,7.78637079 C53.1552766,8.56865896 53.7884172,9.20172999 54.5676914,9.20047078 L54.5814894,9.20047078 C65.1918477,9.19952636 75.5538418,11.2929736 84.399936,15.7934129 C85.0951676,16.1469379 85.9443726,15.8677067 86.2965355,15.169786 C86.6486985,14.4718653 86.3705431,13.6193758 85.6753114,13.2658508" id="Fill-56"></path>
                    <path d="M2.91639817,77.3678343 C4.11431656,76.653229 5.12313946,75.7626482 6.00527151,74.7741634 C7.32893997,73.2889177 8.38041127,71.5905496 9.44097671,69.8216654 C10.4999742,68.0508924 11.5664979,66.2045663 12.8763683,64.3890911 C13.3451872,63.7387059 13.8820553,62.9573621 14.5311891,62.0730774 C16.7993943,58.9842197 20.4198047,54.6358307 26.6511754,51.0184169 C32.8831734,47.4072991 41.741184,44.5158235 54.5651826,44.5126755 C55.3444568,44.5126755 55.976343,43.8783453 55.976343,43.0960571 C55.976343,42.3134541 55.3444568,41.6794387 54.5651826,41.6794387 C46.9963454,41.6791239 40.6834409,42.6597386 35.4144816,44.2265186 C27.5104153,46.5743275 21.9651821,50.2496653 18.0744561,53.8248954 C16.1283091,55.6117234 14.5929666,57.3724227 13.3746647,58.9215737 C12.1576173,60.4691506 11.2507115,61.8127344 10.5902885,62.7275551 C8.70529175,65.3442068 7.35559522,67.903564 5.994923,70.0357322 C5.31599805,71.102918 4.6367595,72.0624409 3.90358328,72.8831352 C3.16915268,73.7047739 2.38548827,74.3882135 1.47387865,74.9328246 C0.80404784,75.3326258 0.583906817,76.2021147 0.982167643,76.8745363 C1.38074206,77.5469578 2.24656737,77.7679503 2.91639817,77.3678343" id="Fill-57"></path>
                    <path d="M107.656487,74.9328246 C106.744877,74.3882135 105.961213,73.7047739 105.226782,72.8831352 C104.12639,71.6531956 103.150181,70.1053039 102.108431,68.3622336 C101.065427,66.6207374 99.9546867,64.689729 98.5400768,62.7275551 C98.1007355,62.118724 97.5491286,61.3162884 96.8717716,60.3926532 C94.4985134,57.1545783 90.5676477,52.4344057 83.8909774,48.5651486 C77.2149343,44.6895954 67.8087663,41.6762906 54.5651826,41.6794387 C53.7859085,41.6794387 53.1540222,42.3134541 53.1540222,43.0960571 C53.1540222,43.8783453 53.7859085,44.5126755 54.5651826,44.5126755 C61.8919275,44.5126755 67.9269901,45.4602358 72.9143446,46.9432779 C80.3947491,49.1698873 85.5282371,52.5924374 89.1511562,55.9158242 C90.9618318,57.5783046 92.3921213,59.2171747 93.5408059,60.6772361 C94.6907448,62.1391863 95.5521799,63.4147725 96.253997,64.3890911 C98.0016407,66.809305 99.3115112,69.2864984 100.75748,71.5615876 C101.481562,72.6983452 102.242335,73.7850489 103.125094,74.7741634 C104.007226,75.7626482 105.016049,76.653229 106.213967,77.3678343 C106.883798,77.7679503 107.749623,77.5469578 108.148198,76.8745363 C108.546458,76.2021147 108.326317,75.3326258 107.656487,74.9328246" id="Fill-58"></path>
                    <path d="M11.326287,101.365665 C12.3918699,102.737896 13.8588496,104.619165 15.8949972,106.645245 C18.9496891,109.687197 23.3013942,113.062841 29.551894,115.656197 C35.8020803,118.252071 43.9403991,120.066287 54.5651826,120.065658 C55.3444568,120.065658 55.976343,119.431328 55.976343,118.649039 C55.976343,117.866436 55.3444568,117.232421 54.5651826,117.232421 C47.6940858,117.232106 41.9588163,116.452022 37.1580486,115.209805 C29.9570539,113.344905 24.8546114,110.448078 21.1470227,107.528585 C19.2936987,106.067894 17.7900289,104.600277 16.5529116,103.244731 C15.3151671,101.88824 14.3464839,100.646967 13.5521574,99.6238541 C13.07299,99.006838 12.1864677,98.8966566 11.5715153,99.3773625 C10.9568766,99.8583831 10.8471197,100.748649 11.326287,101.365665" id="Fill-59"></path>
                    <path d="M95.5782079,99.6238541 C94.5201512,100.986956 93.1481897,102.742303 91.2484542,104.633017 C88.3994781,107.466254 84.3789253,110.595406 78.5000311,113.038286 C72.6208232,115.478333 64.8729254,117.231477 54.5651826,117.232421 C53.7859085,117.232421 53.1540222,117.866436 53.1540222,118.649039 C53.1540222,119.431328 53.7859085,120.065658 54.5651826,120.065658 C61.6488943,120.065658 67.6259426,119.260389 72.6769561,117.953322 C80.2530059,115.994926 85.7411655,112.899457 89.7262825,109.757083 C91.7191546,108.18684 93.3372852,106.606524 94.6587585,105.158425 C95.9792911,103.71127 97.0056751,102.39413 97.8040783,101.365665 C98.2832456,100.748649 98.1734887,99.8583831 97.5585364,99.3773625 C96.9438976,98.8966566 96.0573753,99.006838 95.5782079,99.6238541" id="Fill-60"></path>
                    <path d="M19.2538726,100.295016 C22.0677264,104.069203 26.252601,107.532677 32.0530975,110.034111 C37.8545347,112.537118 45.263754,114.08438 54.5651826,114.08438 C55.3444568,114.08438 55.976343,113.45005 55.976343,112.667762 C55.976343,111.885159 55.3444568,111.251143 54.5651826,111.251143 C45.5732685,111.251143 38.5532159,109.755194 33.1676006,107.430996 C27.7813581,105.105223 24.0220268,101.957812 21.5129836,98.5966483 C21.0457327,97.970503 20.1614055,97.8430073 19.5376726,98.3120654 C18.9136261,98.7811235 18.7866217,99.668871 19.2538726,100.295016" id="Fill-61"></path>
                    <path d="M90.1533937,96.6713065 C87.2476577,100.312331 83.2663038,103.932578 77.5645885,106.667281 C71.8619325,109.398836 64.4197861,111.249884 54.5651826,111.251143 C53.7859085,111.251143 53.1540222,111.885159 53.1540222,112.667762 C53.1540222,113.45005 53.7859085,114.08438 54.5651826,114.08438 C64.7691267,114.085639 72.6590814,112.158723 78.7803816,109.22412 C84.9026227,106.292034 89.2370802,102.356668 92.3566855,98.4420795 C92.8436926,97.8313596 92.745225,96.9398344 92.1368581,96.4509436 C91.5284911,95.9620529 90.6404009,96.0605865 90.1533937,96.6713065" id="Fill-62"></path>
                    <path d="M29.7839515,101.764837 C31.1154598,102.9485 32.7470748,103.894486 34.5815833,104.66733 C37.3339733,105.82455 40.5533006,106.594876 43.9755214,107.087544 C47.397115,107.578953 51.0206613,107.787983 54.5651826,107.788298 C55.3444568,107.788298 55.976343,107.153968 55.976343,106.37168 C55.976343,105.589392 55.3444568,104.955061 54.5651826,104.955061 C49.9880055,104.955691 45.2885277,104.590833 41.2137236,103.726066 C39.1766352,103.294785 37.2969695,102.738526 35.6725671,102.054456 C34.0475375,101.371332 32.682475,100.559767 31.6564046,99.6449459 C31.073125,99.125834 30.1812716,99.1796655 29.6641597,99.7648863 C29.1473614,100.350422 29.2006719,101.245725 29.7839515,101.764837" id="Fill-63"></path>
                    <path d="M85.3328698,92.4897637 C83.3584996,95.0368436 81.1724553,97.0761445 78.8186398,98.7150146 C75.2888572,101.171431 71.373671,102.729711 67.232072,103.677272 C63.092041,104.624517 58.730301,104.955376 54.3557037,104.955061 C53.5764296,104.955061 52.9445433,105.589077 52.9445433,106.37168 C52.9445433,107.153968 53.5764296,107.788298 54.3557037,107.788298 C60.3750868,107.787039 66.4932512,107.188911 72.2191129,105.191794 C75.0809462,104.192921 77.8427439,102.842096 80.4267354,101.043306 C83.0107269,99.2454595 85.4144035,96.9996471 87.5606217,94.2293711 C88.0391618,93.6117255 87.9284642,92.7217743 87.3131982,92.2413833 C86.6979323,91.7609922 85.81141,91.8721181 85.3328698,92.4897637" id="Fill-64"></path>
                    <path d="M2.04241949,85.669533 C3.36546077,85.1919752 4.64616724,84.3662441 5.94098531,83.313854 C7.87835175,81.7332226 9.8439414,79.6221464 11.7991825,77.2658378 C13.7522285,74.9104735 15.688027,72.3101917 17.5156366,69.7662599 C19.9870488,66.3254511 22.2884946,63.4028099 24.6470141,60.9662262 C26.415982,59.1381589 28.2153683,57.582397 30.1511668,56.2699788 C33.0556485,54.3030828 36.2693312,52.8722982 40.2105454,51.916553 C44.1501917,50.962067 48.8192511,50.4936385 54.5648691,50.4939533 C55.3441432,50.4939533 55.9760295,49.859623 55.9760295,49.0773349 C55.9760295,48.2947319 55.3441432,47.6607164 54.5648691,47.6607164 C49.3231921,47.6610312 44.8783504,48.0384813 40.9838613,48.840917 C38.0633864,49.4428224 35.4530533,50.285553 33.0669378,51.3848489 C29.4863535,53.0322187 26.4222539,55.2566244 23.5676332,58.0426406 C20.7111309,60.8296013 18.0543862,64.1731355 15.2264208,68.1088163 C12.8170996,71.4639983 10.2365576,74.8852892 7.75448323,77.6231404 C6.51454362,78.9915938 5.29906412,80.1881642 4.16198243,81.1143178 C3.02678228,82.0426751 1.96558965,82.6918011 1.09317893,83.0012535 C0.359375517,83.2644298 -0.0232057489,84.0750503 0.238956495,84.8116919 C0.50111874,85.5486483 1.30861608,85.9323944 2.04241949,85.669533" id="Fill-65"></path>
                    <path d="M108.036246,83.0012535 C107.164148,82.6918011 106.102956,82.0426751 104.967756,81.1143178 C103.260252,79.7247725 101.384035,77.7279702 99.4996659,75.4531958 C97.6127876,73.1784214 95.710857,70.6253602 93.9033173,68.1088163 C91.3892567,64.6103984 89.0112946,61.580409 86.5072688,58.9920898 C84.6297983,57.0516373 82.6798882,55.3601949 80.5581301,53.921855 C77.3758066,51.7626138 73.8090203,50.184186 69.5808701,49.1620172 C65.3505248,48.1385891 60.4613244,47.6610312 54.5648691,47.6607164 C53.7855949,47.6607164 53.1537086,48.2947319 53.1537086,49.0773349 C53.1537086,49.859623 53.7855949,50.4939533 54.5648691,50.4939533 C59.6717018,50.4936385 63.9290159,50.8638481 67.5782767,51.6162299 C70.3159279,52.1809884 72.7117647,52.9588693 74.8858925,53.9599463 C78.1459866,55.4628211 80.9200144,57.4671787 83.5952609,60.074701 C86.2683123,62.6809641 88.833802,65.8947991 91.6141015,69.7662599 C94.0519595,73.1585888 96.6779723,76.6491365 99.2876782,79.5299088 C100.594099,80.9704523 101.89613,82.2598899 103.188753,83.313854 C104.483571,84.3662441 105.764277,85.1919752 107.087319,85.669533 C107.821122,85.9323944 108.628619,85.5486483 108.890782,84.8116919 C109.152944,84.0750503 108.770363,83.2644298 108.036246,83.0012535" id="Fill-66"></path>
                    <path d="M29.6873654,7.3025169 C33.0562757,6.25799692 36.4706567,5.23173557 40.5103386,4.46235437 C44.5500204,3.69360277 49.2209614,3.17921289 55.0976605,3.17889808 C55.8769346,3.17889808 56.5088209,2.54456784 56.5088209,1.76227966 C56.5088209,0.979991492 55.8769346,0.345661245 55.0976605,0.345661245 C49.057894,0.345346441 44.1912721,0.877365358 39.9844461,1.67885658 C35.7779338,2.47971819 32.2371755,3.54658926 28.8544672,4.5955165 C28.1096881,4.82658271 27.6926118,5.61957422 27.9227878,6.36723394 C28.1526501,7.11457885 28.9428999,7.5335831 29.6873654,7.3025169" id="Fill-67"></path>
                    <path d="M80.2749573,4.5955165 C76.8925626,3.54658926 73.3518043,2.47971819 69.1449784,1.67885658 C64.938466,0.877365358 60.0718441,0.345346441 54.0320776,0.345661245 C53.2524899,0.345661245 52.6209172,0.979991492 52.6209172,1.76227966 C52.6209172,2.54456784 53.2524899,3.17889808 54.0320776,3.17889808 C59.9084631,3.17921289 64.5797177,3.69360277 68.6193995,4.46235437 C72.6590814,5.23173557 76.0731488,6.25799692 79.4420591,7.3025169 C80.1868382,7.5335831 80.9767744,7.11457885 81.2069503,6.36723394 C81.4368127,5.61957422 81.0197364,4.82658271 80.2749573,4.5955165" id="Fill-68"></path>
                    <path d="M2.74204147,92.5668907 C5.56781178,91.3750424 8.00566978,89.8787786 10.1565918,88.1857621 C13.9228222,85.2215668 16.8094292,81.6702618 19.4802854,78.0745695 C21.4831924,75.375754 23.367562,72.6473469 25.3993194,70.0879896 C26.9227454,68.1679995 28.5277052,66.3430801 30.3227012,64.686581 C33.0170768,62.2021471 36.1304103,60.0917005 40.0932623,58.580326 C44.0564279,57.0708404 48.8847916,56.1610566 55.0035831,56.160427 C60.7667622,56.1610566 65.9711218,58.5013102 69.7495822,62.2918663 C73.5255339,66.0849408 75.8567709,71.3094295 75.857398,77.0948991 C75.8567709,82.880054 73.5255339,88.1048575 69.7495822,91.8976172 C65.9711218,95.6881733 60.7667622,98.0284269 55.0035831,98.0293713 C46.8335916,98.0268529 40.7847309,96.588513 35.1626678,95.114915 C32.3525771,94.3782735 29.6503617,93.6302989 26.8597136,93.0617627 C24.0700063,92.4938562 21.191239,92.1082211 18.0572086,92.1085359 C13.7895459,92.1072767 9.0634129,92.8253449 3.44856244,94.7056697 C2.70942798,94.9527909 2.3095992,95.7552266 2.55608188,96.4975346 C2.80256457,97.2395279 3.60190854,97.6409031 4.341043,97.3934671 C9.71536901,95.5962505 14.1059594,94.9427172 18.0572086,94.9417728 C20.9604359,94.9420876 23.6344281,95.2962422 26.2990125,95.8386496 C30.2932237,96.6498998 34.2692465,97.8958944 38.854577,98.9533213 C43.4386532,100.009489 48.6267061,100.863553 55.0035831,100.862608 C61.5372558,100.863238 67.4650703,98.1999952 71.7452766,93.9010305 C76.0276781,89.6045842 78.6806596,83.6535276 78.6797188,77.0948991 C78.6806596,70.5359559 76.0276781,64.5852141 71.7452766,60.288453 C67.4650703,55.9894883 61.5372558,53.3262457 55.0035831,53.3271901 C50.6719479,53.3271901 46.8950554,53.7647678 43.5625217,54.5602777 C37.7303526,55.9485638 33.2682634,58.4509415 29.6434627,61.5139854 C26.9224318,63.8098516 24.6661431,66.4104482 22.5945597,69.084709 C19.4887524,73.0984612 16.7852826,77.2774855 13.5882203,80.9528233 C10.3883357,84.6316239 6.72966718,87.8079972 1.64823535,89.9549611 C0.929797912,90.2581175 0.59237378,91.0885707 0.894362106,91.8097869 C1.19603684,92.531003 2.02329043,92.8700471 2.74204147,92.5668907" id="Fill-69"></path>
                    <path d="M107.481503,89.9549611 C104.179701,88.5610086 101.485325,86.7329413 99.1195934,84.6155689 C95.5725633,81.4417141 92.774389,77.5973265 89.922277,73.6566088 C87.0689107,69.7206133 84.1609795,65.6882876 80.3229367,62.2421272 C79.7418522,61.7208116 78.8496853,61.7711803 78.3303783,62.3545123 C77.8110712,62.9378443 77.8612458,63.8334619 78.4423303,64.3547775 C80.806808,66.4759275 82.838879,68.8898453 84.7759318,71.4344067 C87.6829222,75.2485731 90.3653814,79.3573962 93.6794132,83.1180459 C96.9906227,86.8752327 100.964764,90.2817278 106.387697,92.5668907 C107.106134,92.8700471 107.933388,92.5313178 108.235376,91.8097869 C108.537678,91.0885707 108.19994,90.2581175 107.481503,89.9549611" id="Fill-70"></path>
                    <path d="M18.0684978,87.8429405 L18.0684978,89.2595589 C21.0701928,89.2598737 23.8335585,89.5923068 26.5254254,90.1032339 C29.2166651,90.6141609 31.8360924,91.3057855 34.5320359,92.0191316 C40.3463304,93.5575792 46.5447741,95.1986529 55.0035831,95.1961345 C59.9727493,95.1967641 64.4884626,93.1634445 67.7485567,89.8888523 C71.0102188,86.6164637 73.0357044,82.08297 73.0350772,77.0948991 C73.0357044,72.1068283 71.0102188,67.5733345 67.7485567,64.300946 C64.4884626,61.0263538 59.9727493,58.9930342 55.0035831,58.9936638 C50.9708003,58.993349 47.4341187,59.488221 44.2891126,60.4011529 C39.569565,61.7680323 35.7468882,64.082472 32.4711145,66.9682811 C29.1925185,69.8547198 26.4464004,73.299621 23.7799344,76.979366 C21.3891151,80.2810314 18.882267,83.7341175 15.8159722,86.8692514 C15.4130076,87.2810152 15.2994875,87.9002348 15.5299771,88.4291057 C15.7604666,88.9579766 16.2904357,89.294817 16.8652484,89.2775027 C17.2704082,89.2652254 17.6705506,89.2595589 18.0684978,89.2595589 L18.0684978,86.4263221 C17.6442089,86.4263221 17.2155298,86.4323033 16.7805788,86.4455251 L16.8229136,87.8615139 L17.8298549,88.8537764 C21.0814821,85.5275564 23.6701775,81.9466598 26.0625648,78.6456241 C27.8064454,76.2380024 29.55503,73.979283 31.4237199,71.9541483 C34.2294204,68.9147148 37.2925793,66.4041521 41.0525378,64.6355827 C44.8137506,62.869217 49.2955961,61.8287895 55.0035831,61.8269006 C59.1991198,61.8275302 62.9935734,63.5366017 65.7528623,66.3043592 C68.5099562,69.0743205 70.2121292,72.8831352 70.2127564,77.0948991 C70.2121292,81.3066631 68.5099562,85.1154778 65.7528623,87.885439 C62.9935734,90.6531966 59.1994334,92.362268 55.0035831,92.3628977 C46.9088535,92.3603792 41.073862,90.8187836 35.2511005,89.2793916 C32.5554706,88.5666751 29.8692483,87.8552178 27.0500634,87.3194213 C24.2311921,86.7839395 21.278731,86.4263221 18.0684978,86.4263221 L18.0684978,87.8429405" id="Fill-71"></path>
                    <path d="M55.0035831,88.1130424 L55.0035831,86.696424 C51.3192001,86.6957944 48.1754483,86.3488803 45.2339629,85.8149725 C42.2931046,85.2810648 39.5510631,84.5570154 36.6892298,83.7999115 C33.9973629,83.0884543 31.2277254,82.3549607 28.2733827,81.7857949 L28.0074574,83.1769142 L29.1435983,84.0174411 C29.6541248,83.3220389 30.1477173,82.640488 30.6268847,81.9790846 C32.3039704,79.6637005 33.9594184,77.5973265 35.6697448,75.8073504 C38.2374296,73.1214419 40.915812,71.0619935 44.0131523,69.6579672 C47.111747,68.2564594 50.6515644,67.4949483 55.0035831,67.4933743 C57.6430803,67.4940039 60.0260598,68.5674859 61.7630415,70.3092969 C63.4981416,72.0529968 64.5674876,74.4455079 64.5681148,77.0948991 C64.5678012,79.7442904 63.4981416,82.1364867 61.7630415,83.8805014 C60.0260598,85.6219976 57.6430803,86.6957944 55.0035831,86.696424 L55.0035831,89.5296608 C58.4163962,89.5302904 61.5212627,88.1322454 63.7587359,85.8839146 C65.9987178,83.6374726 67.3910628,80.5205973 67.3904356,77.0948991 C67.3910628,73.6688862 65.9987178,70.5523257 63.7587359,68.3058837 C61.5212627,66.057238 58.4163962,64.6595079 55.0035831,64.6601375 C51.8833507,64.6598227 49.0763958,65.0281434 46.5146693,65.7452672 C42.670982,66.8184343 39.396149,68.6827042 36.46658,71.1652492 C33.5338751,73.6484239 30.9342041,76.7388557 28.3442543,80.3128266 C27.8654006,80.97423 27.3752575,81.6504292 26.8716301,82.3363873 C26.5834397,82.728948 26.5163312,83.2389306 26.6935102,83.6931929 C26.8706893,84.1474552 27.2645598,84.4761107 27.741532,84.5680335 C30.5748285,85.113589 33.2782983,85.8275647 35.9701652,86.5396515 C38.8307441,87.2961258 41.6524377,88.0434707 44.7315897,88.6028776 C47.809801,89.1622844 51.1420211,89.5299756 55.0035831,89.5296608 L55.0035831,88.1130424" id="Fill-72"></path>
                    <path d="M55.0035831,82.4465687 L55.0035831,81.0299503 C51.6832795,81.0293207 48.8684849,80.7204979 46.1791267,80.2290887 C43.4907094,79.7379943 40.9236518,79.0602211 38.127359,78.3201167 L38.1235959,78.3191723 C38.0800068,78.3078393 38.043003,78.2980804 38.0125847,78.2898955 L37.6403519,79.6561452 L38.7441929,80.5388559 C39.1734993,79.9970781 39.8596368,79.2494184 40.7775183,78.4491864 C42.1551244,77.2463199 44.0558007,75.9197355 46.43439,74.8997702 C48.8145472,73.8791753 51.6701087,73.1604776 55.0035831,73.159848 C56.0867272,73.1604776 57.0588599,73.5983701 57.7738478,74.3139198 C58.4866406,75.0319879 58.9231596,76.0075658 58.9234732,77.0948991 C58.9231596,78.1822325 58.4866406,79.1578104 57.7738478,79.8755637 C57.0588599,80.5911134 56.0867272,81.0293207 55.0035831,81.0299503 L55.0035831,83.8631871 C56.8600431,83.8638168 58.5537491,83.1013612 59.7695422,81.8789769 C60.9872169,80.6587963 61.7464212,78.9585394 61.745794,77.0948991 C61.7464212,75.2312589 60.9872169,73.531002 59.7695422,72.3105065 C58.5537491,71.0881222 56.8600431,70.3259815 55.0035831,70.3266111 C50.0130928,70.3253519 45.9100655,71.7728211 42.8186834,73.5448534 C41.2711108,74.4310269 39.9725297,75.3974755 38.9257622,76.3107221 C37.8786812,77.225228 37.0849819,78.0830692 36.5365109,78.7737494 C36.23954,79.1480514 36.1507937,79.6413495 36.2988087,80.0962414 C36.4468238,80.5508185 36.8083945,80.8964734 37.2681192,81.0227098 C37.322684,81.0378204 37.3709771,81.0500978 37.4120575,81.0611159 L37.4082944,81.0598567 C40.2030192,81.7990167 42.8456523,82.4994558 45.6736177,83.0166789 C48.5003288,83.5339021 51.507982,83.8635019 55.0035831,83.8631871 L55.0035831,82.4465687" id="Fill-73"></path>
                    <path d="M106.72418,95.7294126 C103.716527,95.3922574 101.016507,94.2152049 98.5780214,92.5413916 C94.9228023,90.035551 91.8997831,86.4033414 89.557884,83.0629551 C88.3856801,81.3932342 87.3815611,79.7996959 86.5358056,78.452964 C86.1127711,77.7789684 85.7292491,77.1669893 85.3795949,76.6321371 C85.0286863,76.0963406 84.7157223,75.640819 84.4062078,75.2570728 C84.0004208,74.7555899 83.3045619,74.5934658 82.7200279,74.8638825 C82.1358075,75.1342993 81.8068503,75.7708331 81.9228791,76.4061078 L82.3706873,76.3236291 L81.9225655,76.404219 L81.9228791,76.4061078 L82.3706873,76.3236291 L81.9225655,76.404219 C81.9266421,76.4246812 82.1483511,77.6835828 82.1480375,79.5371493 C82.1486647,81.1036145 81.9887332,83.0925467 81.4280321,85.1142186 C80.8667039,87.1384089 79.9124459,89.1849503 78.3344549,90.9415572 C77.8126392,91.5226855 77.8587371,92.4183032 78.4376264,92.942452 C79.0165158,93.466286 79.9086828,93.4200098 80.4308121,92.8388814 C82.3634747,90.6865659 83.4977341,88.2178722 84.1468679,85.8735261 C84.7966288,83.526032 84.9697312,81.2931265 84.9703584,79.5371493 C84.9697312,77.392389 84.7097641,75.9565675 84.6987884,75.8945511 L83.3108337,76.1504869 L82.2154596,77.0435861 C82.4838937,77.3728712 82.8862312,77.9687953 83.3638306,78.7199179 C84.2055094,80.0392618 85.3046466,81.850015 86.6559111,83.8342252 C88.6854733,86.8122719 91.28389,90.192953 94.5414754,92.9937651 C96.1705817,94.3933841 97.9674593,95.6478784 99.9449654,96.6215674 C101.921844,97.5946269 104.081861,98.2846775 106.411216,98.5453352 C107.185786,98.6322212 107.88384,98.0721847 107.970078,97.2946186 C108.056629,96.5170525 107.49875,95.8162986 106.72418,95.7294126" id="Fill-74"></path>
                </g>
            </g>
        </g>
    </g>
</svg>